<?xml version="1.0" encoding="utf-8"?>
<!-- Generator: Adobe Illustrator 24.0.3, SVG Export Plug-In . SVG Version: 6.00 Build 0)  -->
<svg version="1.1" id="Слой_1" xmlns="http://www.w3.org/2000/svg" xmlns:xlink="http://www.w3.org/1999/xlink" x="0px" y="0px"
	 viewBox="0 0 196 22" style="enable-background:new 0 0 196 22;" xml:space="preserve">
<style type="text/css">
	.st0{fill:#F7955B;}
	.st1{fill:#FFFFFF;}
	.st2{fill:#FFFFFF;fill-opacity:0.71;}
</style>
<path class="st0" d="M0,0h23.5v22H0V0z"/>
<path class="st1" d="M7.3,17.5h1.8V4.9H7.3V17.5z"/>
<path class="st1" d="M23.5,4.9h-1.8v9.5l-9-9.5h-1.8v12.6h1.8V7.9l9,9.6h1.8V4.9z"/>
<path class="st2" d="M37.7,10.3c0,0.5-0.2,0.9-0.5,1.3c-0.3,0.3-0.8,0.5-1.3,0.5h-7.2V6.7h7.2c0.5,0,0.9,0.2,1.3,0.5
	c0.3,0.3,0.5,0.8,0.5,1.3V10.3z M39.4,8.5c0-1-0.4-1.9-1.1-2.5c-0.7-0.7-1.6-1.1-2.5-1.1h-9v12.6h1.8v-3.6h7.2c1,0,1.9-0.4,2.6-1.1
	c0.7-0.7,1.1-1.6,1.1-2.6V8.5z"/>
<path class="st2" d="M51.5,13.9c0,0.5-0.2,0.9-0.5,1.3c-0.3,0.3-0.8,0.5-1.3,0.5h-5.4c-0.5,0-0.9-0.2-1.3-0.5
	c-0.3-0.3-0.5-0.8-0.5-1.3V8.5c0-0.5,0.2-0.9,0.5-1.3c0.3-0.3,0.8-0.5,1.3-0.5h5.4c0.5,0,0.9,0.2,1.3,0.5c0.3,0.3,0.5,0.8,0.5,1.3
	V13.9z M53.4,8.5c0-1-0.4-1.9-1.1-2.5c-0.7-0.7-1.6-1.1-2.5-1.1h-5.4c-1,0-1.9,0.4-2.6,1.1c-0.7,0.7-1.1,1.6-1.1,2.6v5.4
	c0,0.5,0.1,1,0.3,1.4c0.2,0.4,0.4,0.8,0.8,1.2c0.3,0.3,0.7,0.6,1.2,0.8c0.4,0.2,0.9,0.3,1.4,0.3h5.4c1,0,1.9-0.4,2.6-1.1
	c0.7-0.7,1.1-1.6,1.1-2.6V8.5z"/>
<path class="st2" d="M65.5,13.9c0,0.5-0.2,0.9-0.5,1.3c-0.3,0.3-0.8,0.5-1.3,0.5h-5.4c-0.5,0-0.9-0.2-1.3-0.5
	c-0.3-0.3-0.5-0.8-0.5-1.3V8.5c0-0.5,0.2-0.9,0.5-1.3c0.3-0.3,0.8-0.5,1.3-0.5h5.4c0.5,0,0.9,0.2,1.3,0.5c0.3,0.3,0.5,0.8,0.5,1.3
	L65.5,13.9z M67.4,8.5c0-1-0.4-1.9-1.1-2.5c-0.7-0.7-1.6-1.1-2.5-1.1h-5.4c-1,0-1.9,0.4-2.6,1.1c-0.7,0.7-1.1,1.6-1.1,2.6v5.4
	c0,0.5,0.1,1,0.3,1.4c0.2,0.4,0.4,0.8,0.8,1.2c0.3,0.3,0.7,0.6,1.2,0.8c0.4,0.2,0.9,0.3,1.4,0.3h5.4c1,0,1.9-0.4,2.6-1.1
	c0.7-0.7,1.1-1.6,1.1-2.6L67.4,8.5z"/>
<path class="st2" d="M70.8,4.9H69v12.6h12.6v-1.8H70.8V4.9z"/>
<path class="st2" d="M106,14c0,2.3-1.2,3.5-4.5,3.5h-5.4c-3.3,0-4.5-1.2-4.5-4.4V9.6c0-3.3,1.2-4.5,4.5-4.5h5.4c3,0,4.5,1.1,4.5,3.5
	h-1.3c0-1.4-0.7-2.3-3.2-2.3h-5.4c-2.5,0-3.3,0.7-3.3,3.3v3.5c0,2.4,0.8,3.2,3.3,3.2h5.4c2.3,0,3.2-0.7,3.2-2.3H106z"/>
<path class="st2" d="M117.9,17.5h-5.4c-3.3,0-4.6-1.1-4.6-4.2V9.4c0-3.2,1.1-4.4,4.6-4.4h5.4c3,0,4.4,0.8,4.4,4.4v3.8
	C122.3,16.8,121.2,17.5,117.9,17.5z M117.9,6.3h-5.4c-2.3,0-3.3,0.7-3.3,3v3.9c0,2.4,0.9,3,3.3,3h5.4c2.6,0,3.2-0.6,3.2-3V9.3
	C121,6.9,120.3,6.3,117.9,6.3z"/>
<path class="st2" d="M127,5.2l9.5,11v-11h1.3v12.3h-1.8l-9.7-11.3h-0.7v11.3h-1.3V5.2L127,5.2z"/>
<path class="st2" d="M153.9,14c0,2.3-1.2,3.5-4.5,3.5H144c-3.3,0-4.5-1.2-4.5-4.4V9.6c0-3.3,1.2-4.5,4.5-4.5h5.4
	c3,0,4.5,1.1,4.5,3.5h-1.3c0-1.4-0.7-2.3-3.2-2.3H144c-2.5,0-3.3,0.7-3.3,3.3v3.5c0,2.4,0.8,3.2,3.3,3.2h5.4c2.3,0,3.2-0.7,3.2-2.3
	H153.9z"/>
<path class="st2" d="M156,5.2h10.9v1.2h-9.6v4.1h9.4v1.2h-9.4v4.5h9.6v1.2H156V5.2z"/>
<path class="st2" d="M170.3,17.5h-1.3V5.2h8.3c3,0,4.3,1,4.3,3.8c0,2.7-1.2,3.4-4.3,3.4h-7V17.5z M170.3,11.2h7.5
	c1.8,0,2.5-0.4,2.5-2.3c0-1.8-0.7-2.4-2.7-2.4h-7.4V11.2z"/>
<path class="st2" d="M196,5.2v1.2h-6v11h-1.3v-11h-6V5.2H196z"/>
</svg>
