<?xml version="1.0" encoding="utf-8"?>
<!-- Generator: Adobe Illustrator 24.0.3, SVG Export Plug-In . SVG Version: 6.00 Build 0)  -->
<svg version="1.1" id="Слой_1" xmlns="http://www.w3.org/2000/svg" xmlns:xlink="http://www.w3.org/1999/xlink" x="0px" y="0px"
	 width="59.8px" height="70.9px" viewBox="0 0 59.8 70.9" style="enable-background:new 0 0 59.8 70.9;" xml:space="preserve">
<style type="text/css">
	.st0{fill-rule:evenodd;clip-rule:evenodd;fill:#CBCBCB;}
	.st1{fill:#CBCBCB;}
</style>
<path class="st0" d="M37.9,27.1c0-0.6,0.4-1,1-1h4.7c0.6,0,1,0.4,1,1v4.6c0,0.6-0.4,1-1,1h-4.7c-0.6,0-1-0.4-1-1V27.1z M39.9,28.1
	v2.6h2.7v-2.6H39.9z"/>
<path class="st0" d="M48,35.5c0-0.6,0.4-1,1-1h4.6v1h1v5.2c0,4.3-3.5,7.7-7.7,7.7H39c-0.6,0-1-0.4-1-1v-4.6c0-0.6,0.4-1,1-1h7.7
	c0.7,0,1.2-0.5,1.2-1.2V35.5z M52.5,36.5H50v4.2c0,1.8-1.4,3.2-3.2,3.2H40v2.6h6.8c3.2,0,5.7-2.6,5.7-5.7V36.5z"/>
<path class="st0" d="M45.7,24.2c-0.6,0-1,0.4-1,1v8.3c0,0.5,0.5,1,1,1h11.2c0.6,0,1-0.4,1-1v-8.3c0-0.5-0.4-1-1-1H45.7z M42.7,25.2
	c0-1.7,1.4-3,3-3h11.1c1.7,0,3,1.3,3,3v8.3c0,1.7-1.4,3-3,3H45.7c-1.6,0-3-1.3-3-3V25.2z"/>
<path class="st0" d="M9.1,56.5C9.3,56.2,9.6,56,9.9,56H30c0.3,0,0.6,0.2,0.8,0.4l6,8.6c0.3,0.5,0.2,1.1-0.2,1.4
	c-0.5,0.3-1.1,0.2-1.4-0.2L29.5,58H10.4l-5.7,8.1c-0.3,0.5-0.9,0.6-1.4,0.2c-0.5-0.3-0.6-0.9-0.2-1.4L9.1,56.5z"/>
<path class="st0" d="M8.9,13c0-1.1,0.9-2,2-2h18.2c1.1,0,2,0.9,2,2v2.2c0,0.6-0.4,1-1,1s-1-0.4-1-1v-2.1H10.9v2.1c0,0.6-0.4,1-1,1
	c-0.6,0-1-0.4-1-1V13z"/>
<path class="st0" d="M2,66.6h1.8c0.6,0,1-0.4,1-1s-0.4-1-1-1H2c-1.1,0-2,0.9-2,2v2.3c0,1.1,0.9,2,2,2h36c1.1,0,2-0.9,2-2v-2.3
	c0-1.1-0.9-2-2-2h-1.9c-0.6,0-1,0.4-1,1s0.4,1,1,1h1.9v2.3H2V66.6z"/>
<path class="st0" d="M9.9,16.2c-4.4,0-7.9,3.5-7.9,7.9v24C2,52.5,5.5,56,9.9,56H30c4.4,0,7.9-3.5,7.9-7.9v-24c0-4.4-3.5-7.9-7.9-7.9
	c-0.6,0-1-0.4-1-1s0.4-1,1-1c5.5,0,9.9,4.4,9.9,9.9v24c0,5.5-4.4,9.9-9.9,9.9H9.9C4.4,58,0,53.6,0,48.1v-24c0-5.5,4.4-9.9,9.9-9.9
	c0.6,0,1,0.4,1,1S10.5,16.2,9.9,16.2z"/>
<path class="st1" d="M47.9,5.2h-3.6v3.6h-1.7V5.2h-3.6V3.6h3.6V0h1.7v3.6h3.6V5.2z"/>
</svg>
