<?xml version="1.0" encoding="utf-8"?>
<!-- Generator: Adobe Illustrator 24.0.3, SVG Export Plug-In . SVG Version: 6.00 Build 0)  -->
<svg version="1.1" id="Слой_1" xmlns="http://www.w3.org/2000/svg" xmlns:xlink="http://www.w3.org/1999/xlink" x="0px" y="0px"
	 width="48.9px" height="50px" viewBox="0 0 48.9 50" style="enable-background:new 0 0 48.9 50;" xml:space="preserve">
<style type="text/css">
	.st0{fill:#CBCBCB;}
</style>
<ellipse class="st0" cx="44.3" cy="3.6" rx="3" ry="3.6"/>
<ellipse class="st0" cx="44.3" cy="46.5" rx="3" ry="3.6"/>
<ellipse class="st0" cx="45.9" cy="25" rx="3" ry="3.6"/>
<ellipse class="st0" cx="35.7" cy="6.5" rx="2.8" ry="3.3"/>
<ellipse class="st0" cx="35.7" cy="43.5" rx="2.8" ry="3.3"/>
<ellipse class="st0" cx="36.7" cy="25" rx="2.8" ry="3.3"/>
<ellipse class="st0" cx="27.4" cy="9.5" rx="2.5" ry="3"/>
<ellipse class="st0" cx="27.4" cy="40.5" rx="2.5" ry="3"/>
<ellipse class="st0" cx="27.9" cy="25" rx="2.5" ry="3"/>
<ellipse class="st0" cx="18.7" cy="12.5" rx="2.3" ry="2.7"/>
<ellipse class="st0" cx="18.7" cy="37.5" rx="2.3" ry="2.7"/>
<ellipse class="st0" cx="19" cy="25" rx="2.3" ry="2.7"/>
<ellipse class="st0" cx="10.1" cy="15.5" rx="2" ry="2.4"/>
<ellipse class="st0" cx="10.1" cy="25" rx="2" ry="2.4"/>
<ellipse class="st0" cx="10.1" cy="34.5" rx="2" ry="2.4"/>
<ellipse class="st0" cx="1.8" cy="18.5" rx="1.8" ry="2.1"/>
<ellipse class="st0" cx="1.8" cy="25" rx="1.8" ry="2.1"/>
<ellipse class="st0" cx="1.8" cy="31.6" rx="1.8" ry="2.1"/>
</svg>
