<?xml version="1.0" encoding="utf-8"?>
<!-- Generator: Adobe Illustrator 24.0.3, SVG Export Plug-In . SVG Version: 6.00 Build 0)  -->
<svg version="1.1" id="Слой_1" xmlns="http://www.w3.org/2000/svg" xmlns:xlink="http://www.w3.org/1999/xlink" x="0px" y="0px"
	 width="54.8px" height="51.4px" viewBox="0 0 54.8 51.4" style="enable-background:new 0 0 54.8 51.4;" xml:space="preserve">
<style type="text/css">
	.st0{fill:#CBCBCB;}
</style>
<path class="st0" d="M3.5,8.7c-0.7,0-1.4-0.1-2-0.3C0.9,8.2,0.4,8,0,7.7l0.6-1.2C1,6.7,1.5,6.9,2,7.1c0.5,0.2,1.1,0.2,1.6,0.2
	c1.3,0,2-0.4,2-1.2c0-0.3-0.1-0.5-0.3-0.6C5.2,5.4,4.9,5.3,4.7,5.2C4.4,5.2,4,5.1,3.5,5C2.8,4.9,2.3,4.8,1.8,4.6
	C1.4,4.5,1,4.3,0.7,3.9C0.4,3.6,0.3,3.1,0.3,2.5c0-0.8,0.3-1.4,1-1.8C1.9,0.2,2.7,0,3.8,0c0.6,0,1.1,0.1,1.7,0.2
	c0.6,0.1,1,0.3,1.4,0.6L6.2,2C5.5,1.5,4.7,1.3,3.8,1.3c-0.7,0-1.1,0.1-1.5,0.3C2,1.8,1.8,2.1,1.8,2.5c0,0.3,0.1,0.5,0.3,0.7
	c0.2,0.2,0.4,0.3,0.7,0.4C3.1,3.6,3.5,3.6,4,3.7C4.7,3.9,5.2,4,5.6,4.1c0.4,0.1,0.8,0.4,1.1,0.7C7,5.1,7.2,5.6,7.2,6.1
	c0,0.8-0.3,1.4-1,1.8C5.5,8.4,4.6,8.7,3.5,8.7z"/>
<path class="st0" d="M53.2,5c0,2-1.4,3.6-3,3.6c-1.7,0-3-1.6-3-3.6s1.4-3.6,3-3.6C51.9,1.4,53.2,3,53.2,5z"/>
<path class="st0" d="M53.2,47.9c0,2-1.4,3.6-3,3.6c-1.7,0-3-1.6-3-3.6s1.4-3.6,3-3.6C51.9,44.3,53.2,45.9,53.2,47.9z"/>
<path class="st0" d="M54.8,26.4c0,2-1.4,3.6-3,3.6s-3-1.6-3-3.6c0-2,1.4-3.6,3-3.6S54.8,24.5,54.8,26.4z"/>
<path class="st0" d="M44.4,8c0,1.8-1.2,3.3-2.8,3.3c-1.5,0-2.8-1.5-2.8-3.3c0-1.8,1.2-3.3,2.8-3.3C43.1,4.7,44.4,6.2,44.4,8z"/>
<path class="st0" d="M44.4,44.9c0,1.8-1.2,3.3-2.8,3.3c-1.5,0-2.8-1.5-2.8-3.3s1.2-3.3,2.8-3.3C43.1,41.6,44.4,43.1,44.4,44.9z"/>
<path class="st0" d="M45.4,26.4c0,1.8-1.2,3.3-2.8,3.3c-1.5,0-2.8-1.5-2.8-3.3c0-1.8,1.2-3.3,2.8-3.3C44.1,23.2,45.4,24.6,45.4,26.4
	z"/>
<path class="st0" d="M35.8,10.9c0,1.6-1.1,3-2.5,3s-2.5-1.3-2.5-3c0-1.6,1.1-3,2.5-3S35.8,9.3,35.8,10.9z"/>
<path class="st0" d="M35.8,41.9c0,1.6-1.1,3-2.5,3s-2.5-1.3-2.5-3c0-1.6,1.1-3,2.5-3S35.8,40.3,35.8,41.9z"/>
<path class="st0" d="M36.3,26.4c0,1.6-1.1,3-2.5,3s-2.5-1.3-2.5-3s1.1-3,2.5-3S36.3,24.8,36.3,26.4z"/>
<path class="st0" d="M26.9,13.9c0,1.5-1,2.7-2.3,2.7c-1.3,0-2.3-1.2-2.3-2.7c0-1.5,1-2.7,2.3-2.7C25.9,11.2,26.9,12.4,26.9,13.9z"/>
<path class="st0" d="M26.9,38.9c0,1.5-1,2.7-2.3,2.7c-1.3,0-2.3-1.2-2.3-2.7c0-1.5,1-2.7,2.3-2.7C25.9,36.3,26.9,37.5,26.9,38.9z"/>
<path class="st0" d="M27.1,26.4c0,1.5-1,2.7-2.3,2.7c-1.3,0-2.3-1.2-2.3-2.7c0-1.5,1-2.7,2.3-2.7C26.1,23.8,27.1,25,27.1,26.4z"/>
<path class="st0" d="M18,16.9c0,1.3-0.9,2.4-2,2.4c-1.1,0-2-1.1-2-2.4c0-1.3,0.9-2.4,2-2.4C17.1,14.5,18,15.6,18,16.9z"/>
<path class="st0" d="M18,26.4c0,1.3-0.9,2.4-2,2.4c-1.1,0-2-1.1-2-2.4s0.9-2.4,2-2.4C17.1,24,18,25.1,18,26.4z"/>
<path class="st0" d="M18,36c0,1.3-0.9,2.4-2,2.4c-1.1,0-2-1.1-2-2.4c0-1.3,0.9-2.4,2-2.4C17.1,33.6,18,34.6,18,36z"/>
<path class="st0" d="M9.4,19.9C9.4,21,8.6,22,7.6,22S5.9,21,5.9,19.9c0-1.2,0.8-2.1,1.8-2.1S9.4,18.7,9.4,19.9z"/>
<path class="st0" d="M9.4,26.4c0,1.2-0.8,2.1-1.8,2.1s-1.8-0.9-1.8-2.1c0-1.2,0.8-2.1,1.8-2.1S9.4,25.3,9.4,26.4z"/>
<path class="st0" d="M9.4,33c0,1.2-0.8,2.1-1.8,2.1S5.9,34.1,5.9,33c0-1.2,0.8-2.1,1.8-2.1S9.4,31.8,9.4,33z"/>
</svg>
