<?xml version="1.0" encoding="utf-8"?>
<!-- Generator: Adobe Illustrator 24.0.3, SVG Export Plug-In . SVG Version: 6.00 Build 0)  -->
<svg version="1.1" id="Слой_1" xmlns="http://www.w3.org/2000/svg" xmlns:xlink="http://www.w3.org/1999/xlink" x="0px" y="0px"
	 width="79px" height="63.8px" viewBox="0 0 79 63.8" style="enable-background:new 0 0 79 63.8;" xml:space="preserve">
<style type="text/css">
	.st0{fill-rule:evenodd;clip-rule:evenodd;fill:#CBCBCB;}
</style>
<path class="st0" d="M4.7,38.2C3,40.7,2,44.2,2,48.1s1,7.4,2.7,9.9c1.6,2.5,3.8,3.9,6,3.9c1.9,0,3.8-1.1,5.4-3
	c0.3-0.4,1-0.5,1.4-0.2c0.4,0.3,0.5,1,0.2,1.4c-1.8,2.3-4.2,3.8-6.9,3.8c-3.1,0-5.8-1.9-7.6-4.8c-1.9-2.9-3-6.7-3-11s1.1-8.1,3-11
	c1.9-2.8,4.5-4.8,7.6-4.8c2.5,0,4.7,1.2,6.4,3.2c0.4,0.4,0.3,1-0.1,1.4c-0.4,0.4-1,0.3-1.4-0.1c-1.5-1.6-3.2-2.5-4.9-2.5
	C8.4,34.4,6.3,35.7,4.7,38.2z"/>
<path class="st0" d="M46.9,38.2c-1.6,2.5-2.7,6-2.7,9.9s1,7.4,2.7,9.9c1.6,2.5,3.8,3.9,6,3.9c1.9,0,3.8-1.1,5.4-3
	c0.3-0.4,1-0.5,1.4-0.2c0.4,0.3,0.5,1,0.2,1.4c-1.8,2.3-4.2,3.8-6.9,3.8c-3.1,0-5.8-1.9-7.6-4.8c-1.9-2.9-3-6.7-3-11s1.1-8.1,3-11
	c1.9-2.8,4.5-4.8,7.6-4.8c2.5,0,4.7,1.2,6.4,3.2c0.4,0.4,0.3,1-0.1,1.4c-0.4,0.4-1,0.3-1.4-0.1c-1.5-1.6-3.2-2.5-4.9-2.5
	C50.7,34.4,48.6,35.7,46.9,38.2z"/>
<path class="st0" d="M26.8,5.9c-1.6,2.5-2.7,6-2.7,9.9c0,3.9,1,7.4,2.7,9.9c1.6,2.5,3.8,3.9,6,3.9c1.9,0,3.8-1.1,5.4-3
	c0.3-0.4,1-0.5,1.4-0.2c0.4,0.3,0.5,1,0.2,1.4c-1.8,2.3-4.2,3.8-6.9,3.8c-3.1,0-5.8-1.9-7.6-4.8c-1.9-2.9-3-6.7-3-11s1.1-8.1,3-11
	C27,1.9,29.7,0,32.8,0c2.5,0,4.7,1.2,6.4,3.2c0.4,0.4,0.3,1-0.1,1.4c-0.4,0.4-1,0.3-1.4-0.1C36.3,2.9,34.5,2,32.8,2
	C30.6,2,28.4,3.4,26.8,5.9z"/>
<path class="st0" d="M36.7,48c0,0.6-0.4,1-1,1l-26,0c-0.6,0-1-0.4-1-1s0.4-1,1-1l26,0C36.3,47,36.7,47.4,36.7,48z"/>
<path class="st0" d="M79,48c0,0.6-0.4,1-1,1h-7.1c-0.6,0-1-0.4-1-1c0-0.6,0.4-1,1-1H78C78.6,47,79,47.4,79,48z M68.5,48
	c0,0.6-0.4,1-1,1L52,49c-0.6,0-1-0.4-1-1c0-0.6,0.4-1,1-1l15.5,0C68.1,47,68.5,47.4,68.5,48z"/>
<path class="st0" d="M58.9,15.6c0,0.6-0.4,1-1,1l-26,0c-0.6,0-1-0.4-1-1c0-0.6,0.4-1,1-1l26,0C58.5,14.6,58.9,15,58.9,15.6z"/>
<path class="st0" d="M30.2,41.5c0,0.6-0.4,1-1,1l-3.7,0.2c-0.6,0-1-0.4-1-1s0.4-1,1-1l3.7-0.2C29.7,40.6,30.1,41,30.2,41.5z
	 M23.3,41.8c0,0.6-0.4,1-1,1l-11,0.5c-0.6,0-1-0.4-1-1c0-0.6,0.4-1,1-1l11-0.5C22.8,40.9,23.3,41.3,23.3,41.8z"/>
<path class="st0" d="M72.4,41.5c0,0.6-0.4,1-1,1l-17.8,0.8c-0.6,0-1-0.4-1-1c0-0.6,0.4-1,1-1l17.8-0.8C72,40.6,72.4,41,72.4,41.5z"
	/>
<path class="st0" d="M52.3,9.2c0,0.6-0.4,1-1,1L40,10.7c-0.6,0-1-0.4-1-1c0-0.6,0.4-1,1-1l11.4-0.5C51.8,8.2,52.3,8.6,52.3,9.2z
	 M37.7,9.8c0,0.6-0.4,1-1,1L33.6,11c-0.6,0-1-0.4-1-1c0-0.6,0.4-1,1-1l3.2-0.1C37.2,8.8,37.7,9.3,37.7,9.8z"/>
<path class="st0" d="M10.3,53.5c0-0.6,0.5-1,1-1l15.3,0.7c0.6,0,1,0.5,1,1c0,0.6-0.5,1-1,1l-15.3-0.7C10.7,54.5,10.3,54,10.3,53.5z"
	/>
<path class="st0" d="M52.6,53.5c0-0.6,0.5-1,1-1L69,53.2c0.6,0,1,0.5,1,1c0,0.6-0.5,1-1,1l-15.3-0.7C53,54.5,52.6,54,52.6,53.5z"/>
<path class="st0" d="M32.5,21.1c0-0.6,0.5-1,1-1l7.5,0.4c0.6,0,1,0.5,1,1c0,0.6-0.5,1-1,1l-7.5-0.4C32.9,22.1,32.5,21.6,32.5,21.1z
	 M43.3,21.6c0-0.6,0.5-1,1-1l4.5,0.2c0.6,0,1,0.5,1,1c0,0.6-0.5,1-1,1l-4.5-0.2C43.7,22.6,43.3,22.2,43.3,21.6z"/>
</svg>
