<svg width="0" height="0" class="hidden">
  <symbol fill="currentColor" xmlns="http://www.w3.org/2000/svg" viewBox="0 0 29 30" id="facebook">
    <path d="M14.5 0C6.492 0 0 6.716 0 15c0 8.284 6.492 15 14.5 15S29 23.284 29 15c0-8.284-6.492-15-14.5-15zm4.26 8.598h-2.072c-.436-.03-.886.315-.965.766-.01.78-.005 1.561-.005 2.342 1.012.005 2.025 0 3.038.005a44.854 44.854 0 01-.37 3.37c-.896.01-1.791 0-2.687.005-.009 3.332.005 6.658-.004 9.99-1.332.005-2.658-.005-3.99.005-.023-3.331 0-6.663-.014-9.995-.647-.005-1.298.005-1.945-.005.005-1.12 0-2.24 0-3.355.647-.01 1.298 0 1.945-.005.02-1.086-.019-2.177.02-3.264.07-.868.383-1.736 1.007-2.332.755-.742 1.823-.994 2.836-1.024 1.069-.01 2.138-.004 3.206-.004.005 1.168.005 2.332 0 3.5z"></path>
  </symbol>
  <symbol fill="currentColor" xmlns="http://www.w3.org/2000/svg" viewBox="0 0 30 30" id="instagram">
    <path d="M18.909 7.443h-7.892a3.586 3.586 0 00-3.581 3.582v7.964a3.586 3.586 0 003.581 3.581h7.892a3.586 3.586 0 003.581-3.581v-7.964a3.586 3.586 0 00-3.581-3.582zm-3.931 12.332c-2.677 0-4.855-2.154-4.855-4.802 0-2.649 2.178-4.803 4.855-4.803 2.676 0 4.854 2.154 4.854 4.803 0 2.648-2.177 4.802-4.854 4.802zm4.94-8.66a1.142 1.142 0 110-2.284 1.142 1.142 0 010 2.285z"></path>
    <path d="M15 0C6.716 0 0 6.716 0 15c0 8.284 6.716 15 15 15 8.284 0 15-6.716 15-15 0-8.284-6.716-15-15-15zm9.262 18.989a5.36 5.36 0 01-5.354 5.353h-7.891a5.36 5.36 0 01-5.353-5.353v-7.964a5.36 5.36 0 015.353-5.353h7.892a5.36 5.36 0 015.353 5.353v7.964z"></path>
    <path d="M14.977 11.938c-1.702 0-3.086 1.362-3.086 3.035s1.384 3.035 3.086 3.035 3.086-1.362 3.086-3.035-1.384-3.035-3.086-3.035z"></path>
  </symbol>
  <symbol fill="currentColor" xmlns="http://www.w3.org/2000/svg" viewBox="0 0 29 30" id="odnoklassniki">
    <path d="M14.66 11.936c1.352 0 2.448-1.134 2.448-2.533S16.012 6.87 14.659 6.87c-1.352 0-2.448 1.134-2.448 2.533s1.096 2.533 2.448 2.533z"></path>
    <path d="M14.5 0C6.492 0 0 6.716 0 15c0 8.284 6.492 15 14.5 15S29 23.284 29 15c0-8.284-6.492-15-14.5-15zm.16 4.254c2.749 0 4.977 2.305 4.977 5.149 0 2.843-2.228 5.148-4.977 5.148s-4.977-2.305-4.977-5.148c0-2.844 2.228-5.149 4.977-5.149zm4.424 13.265c-1.058.703-2.508.969-3.455 1.07l.792.82 2.933 3.033a1.21 1.21 0 010 1.67l-.134.139a1.115 1.115 0 01-1.614 0l-2.933-3.034-2.933 3.034a1.115 1.115 0 01-1.614 0l-.134-.14a1.21 1.21 0 010-1.669l2.932-3.034.79-.817c-.946-.099-2.412-.364-3.479-1.072-1.249-.83-1.802-1.322-1.312-2.34.28-.584 1.059-1.07 2.093-.226 1.398 1.139 3.644 1.139 3.644 1.139s2.245 0 3.643-1.14c1.035-.843 1.813-.357 2.094.227.49 1.019-.064 1.51-1.313 2.34z"></path>
  </symbol>
  <symbol fill="currentColor" xmlns="http://www.w3.org/2000/svg" viewBox="0 0 30 30" id="vkontakte">
    <path d="M15 0C6.716 0 0 6.716 0 15c0 8.284 6.716 15 15 15 8.284 0 15-6.716 15-15 0-8.284-6.716-15-15-15zm6.505 16.983c.118.146.399.43.843.854h.01l.01.01.01.01.022.02c.978.91 1.64 1.677 1.988 2.301.02.034.043.078.067.13.024.052.049.144.073.276a.813.813 0 01-.005.354c-.028.103-.114.2-.26.286-.146.087-.35.13-.614.13l-2.665.042c-.166.035-.36.017-.583-.052a2.548 2.548 0 01-.54-.229l-.21-.125a4.869 4.869 0 01-.728-.666 18.433 18.433 0 01-.713-.807c-.197-.24-.41-.44-.635-.604-.226-.163-.421-.216-.588-.16a.839.839 0 00-.083.036 1.333 1.333 0 00-.4.458 2.139 2.139 0 00-.178.54c-.052.24-.075.51-.068.808 0 .103-.012.2-.036.286a.7.7 0 01-.078.192l-.042.052c-.125.132-.309.208-.551.23h-1.197c-.493.027-1-.03-1.52-.172a5.818 5.818 0 01-1.368-.552c-.393-.225-.75-.454-1.072-.687a6.206 6.206 0 01-.734-.598l-.26-.25a6.592 6.592 0 01-.286-.313c-.122-.138-.37-.454-.744-.947a25.888 25.888 0 01-1.104-1.571 32.009 32.009 0 01-1.275-2.196 34.308 34.308 0 01-1.358-2.831.827.827 0 01-.063-.28c0-.077.01-.133.032-.168l.041-.062c.104-.132.302-.198.594-.198l2.851-.02a1.08 1.08 0 01.406.155l.052.032a.689.689 0 01.25.333c.139.347.299.706.479 1.077s.323.654.427.848l.166.302c.201.416.396.777.583 1.083.188.305.355.543.505.713.149.17.293.303.432.4.139.098.257.146.354.146.097 0 .19-.017.28-.052a.184.184 0 00.053-.052 2.18 2.18 0 00.125-.23 1.69 1.69 0 00.14-.488c.032-.201.065-.482.1-.843a8.109 8.109 0 000-1.3 4.882 4.882 0 00-.094-.76 2.016 2.016 0 00-.146-.48l-.063-.124c-.173-.236-.468-.385-.884-.448-.09-.013-.073-.097.052-.25a1.44 1.44 0 01.395-.312c.368-.18 1.197-.263 2.488-.25.569.007 1.037.052 1.405.136.139.034.255.081.348.14a.56.56 0 01.214.25c.048.107.085.218.11.333a2.4 2.4 0 01.036.473c0 .201-.004.393-.01.573-.008.18-.016.425-.026.733-.01.31-.016.596-.016.86 0 .076-.004.221-.01.436a4.513 4.513 0 00.03.921c.021.163.061.299.12.406a.686.686 0 00.234.255l.177.042c.063.014.153-.024.27-.115a3.8 3.8 0 00.396-.359c.146-.148.326-.38.541-.697.215-.315.451-.688.708-1.119a16.96 16.96 0 001.114-2.342.704.704 0 01.104-.182.46.46 0 01.114-.11l.042-.03c.013-.008.03-.016.052-.027a.85.85 0 01.344-.036l2.997-.021c.27-.034.492-.026.666.026.173.052.28.11.323.172l.062.104c.16.444-.36 1.463-1.56 3.06-.168.222-.393.517-.677.884-.542.695-.854 1.149-.936 1.365-.119.284-.07.565.145.842z"></path>
  </symbol>
</svg>