<?xml version="1.0" encoding="utf-8"?>
<!-- Generator: Adobe Illustrator 24.0.3, SVG Export Plug-In . SVG Version: 6.00 Build 0)  -->
<svg version="1.1" id="Слой_1" xmlns="http://www.w3.org/2000/svg" xmlns:xlink="http://www.w3.org/1999/xlink" x="0px" y="0px"
	 width="73.9px" height="52.2px" viewBox="0 0 73.9 52.2" style="enable-background:new 0 0 73.9 52.2;" xml:space="preserve">
<style type="text/css">
	.st0{fill-rule:evenodd;clip-rule:evenodd;fill:#CBCBCB;}
</style>
<path class="st0" d="M16.6,6.2c0.3-0.8,1.1-1.4,1.9-1.4l45.1,0.8c1.3,0,2.2,1.2,1.9,2.5l-8.8,36.4c-0.2,1-1.1,1.6-2.1,1.5l-47-3.8
	c-1.3-0.1-2.1-1.4-1.7-2.6L16.6,6.2z M63.6,7.6L18.5,6.9L7.8,40.3l47,3.8L63.6,7.6z"/>
<path class="st0" d="M12.5,3.5C13.2,1.4,15.1,0,17.3,0L69,1c3.2,0.1,5.5,3.1,4.8,6.2l-9.9,41.2c-0.6,2.4-2.8,4-5.3,3.8l-54-4.4
	c-3.2-0.3-5.3-3.5-4.4-6.5L12.5,3.5z M17.3,2c-1.3,0-2.5,0.8-2.9,2.1L2.1,41.9c-0.6,1.8,0.7,3.8,2.6,3.9l54,4.4
	c1.5,0.1,2.8-0.9,3.2-2.3l9.9-41.2C72.3,4.8,70.9,3,68.9,3L17.3,2z"/>
<path class="st0" d="M63.7,26.3C63.7,26.3,63.7,26.3,63.7,26.3C63.7,26.3,63.7,26.3,63.7,26.3z M63.3,29.1c0.9,0.3,2-0.5,2.3-1.7
	c0.3-1.2,0-2.5-0.9-2.8c-0.9-0.3-2.1,0.6-2.5,1.8C61.9,27.7,62.4,28.9,63.3,29.1z"/>
</svg>
