<?xml version="1.0" encoding="utf-8"?>
<!-- Generator: Adobe Illustrator 24.0.3, SVG Export Plug-In . SVG Version: 6.00 Build 0)  -->
<svg version="1.1" id="Слой_1" xmlns="http://www.w3.org/2000/svg" xmlns:xlink="http://www.w3.org/1999/xlink" x="0px" y="0px"
	 width="69.7px" height="62.8px" viewBox="0 0 69.7 62.8" style="enable-background:new 0 0 69.7 62.8;" xml:space="preserve">
<style type="text/css">
	.st0{fill-rule:evenodd;clip-rule:evenodd;fill:#CBCBCB;}
</style>
<path class="st0" d="M44.9,0.3C47.1,0.8,50,1.8,53,4c3,2.2,5.3,5.1,6.9,7.5c0.8,1.2,1.4,2.2,1.8,2.9c0.2,0.4,0.4,0.7,0.5,0.9
	c0.1,0.1,0.1,0.2,0.1,0.2c0,0,0,0.1,0,0.1l0,0l0,0l0,0c0,0,0,0-0.9,0.4l0.9-0.4c0.1,0.3,0.1,0.6,0,0.9c-0.1,0.3-0.4,0.5-0.7,0.5
	L26.1,23c-6.8,16,0,30.6,4.2,35.9c0.2,0.3,0.3,0.6,0.2,1c-0.1,0.3-0.4,0.6-0.8,0.6l-13.4,2.3c-0.3,0-0.5,0-0.7-0.2l-6.5-4.3
	c-0.2-0.1-0.3-0.3-0.4-0.5c-0.6-1.8-1.3-3.6-2-5.6c-2.5-7-5.6-15.3-6.5-25.6c-0.6-6.6,0-11.6,1-15.1C2.2,8,3.7,5.8,5,4.9
	c0,0,0,0,0,0L6.5,4c0.1-0.1,0.3-0.1,0.4-0.1L41.1,0l0,0l0.1,1c-0.1-1-0.1-1-0.1-1l0,0l0,0l0,0l0,0c0,0,0,0,0.1,0c0.1,0,0.1,0,0.2,0
	c0.2,0,0.4,0,0.8,0C42.8,0,43.8,0.1,44.9,0.3z M41.3,2l-28,3.1c1.9,0.9,3.5,2.3,4.8,3.9c2.6,3.3,4.4,7.9,5.8,12c0,0,0,0.1,0.1,0.1
	c0,0,0,0,0,0l36-6c-0.4-0.7-0.9-1.6-1.7-2.7c-1.5-2.2-3.7-4.9-6.5-7c-2.7-2-5.4-3-7.4-3.3c-1-0.2-1.8-0.3-2.3-0.3
	c-0.3,0-0.5,0-0.6,0C41.4,2,41.4,2,41.3,2L41.3,2z M23.8,23.3l-0.3,0.1c-0.5,0.1-1-0.2-1.1-0.7c-0.1-0.3-0.2-0.6-0.3-0.9
	c-0.1-0.2-0.3-0.5-0.5-0.8c-0.5-0.8-1.2-1.9-2-2.9c-0.8-1.1-1.7-2.1-2.6-3c-0.9-0.9-1.7-1.6-2.3-1.9c-2.1-1.2-3.6-1.4-4.6-1.2
	c-0.9,0.2-1.7,0.9-2.3,2.3c-0.6,1.4-1,3.3-1.1,5.7c-0.1,2.3-0.1,5,0.1,7.9c0.9,12,6.4,25.7,9.8,32.9l11.1-1.9
	C23.5,52.4,17.9,38.6,23.8,23.3z M13.7,59c-3.4-7.7-8-20-8.8-31c-0.2-2.9-0.3-5.7-0.1-8.2c0.2-2.4,0.5-4.6,1.3-6.3
	c0.7-1.7,1.9-3,3.7-3.4c1.7-0.4,3.7,0.1,6,1.4c0.9,0.5,1.8,1.3,2.7,2.3c0.2,0.2,0.4,0.5,0.7,0.7c-0.7-1.5-1.6-2.9-2.5-4.1
	c-1.3-1.6-2.8-2.9-4.5-3.5C10.4,6.2,8.4,6,6,6.6C5.2,7.2,4,8.9,3.1,12C2.2,15.2,1.7,20,2.2,26.4c0.9,10,3.8,18,6.3,25
	c0.7,1.9,1.4,3.7,1.9,5.5L13.7,59z M59.9,22.5c0.5-0.2,1.1,0,1.3,0.5l8.4,20c0.2,0.5,0,1.1-0.5,1.3c-0.5,0.2-1.1,0-1.3-0.5l-8.4-20
	C59.1,23.3,59.4,22.7,59.9,22.5z M52.1,23.4c0.5-0.2,1.1,0.1,1.3,0.6l1.8,5.2c0.2,0.5-0.1,1.1-0.6,1.3c-0.5,0.2-1.1-0.1-1.3-0.6
	l-1.8-5.2C51.3,24.2,51.6,23.6,52.1,23.4z M45.1,25c0.5-0.1,1.1,0.2,1.2,0.7l4.6,18.7c0.1,0.5-0.2,1.1-0.7,1.2
	c-0.5,0.1-1.1-0.2-1.2-0.7l-4.6-18.7C44.2,25.6,44.5,25.1,45.1,25z M37.7,26c0.5-0.1,1.1,0.3,1.2,0.8l1.2,6.3
	c0.1,0.5-0.3,1.1-0.8,1.2c-0.5,0.1-1.1-0.3-1.2-0.8l-1.2-6.3C36.8,26.6,37.2,26.1,37.7,26z M29.7,27.5c0.5-0.1,1.1,0.3,1.1,0.8
	l1.8,12.2c0.1,0.5-0.3,1.1-0.8,1.1c-0.5,0.1-1.1-0.3-1.1-0.8l-1.8-12.2C28.8,28.1,29.2,27.6,29.7,27.5z M40.4,37.8
	c0.5-0.1,1.1,0.2,1.2,0.8l2,10.3c0.1,0.5-0.2,1.1-0.8,1.2c-0.5,0.1-1.1-0.2-1.2-0.8l-2-10.3C39.5,38.5,39.8,37.9,40.4,37.8z
	 M51.2,48.6c0.5-0.1,1.1,0.2,1.2,0.7l1.4,5.7c0.1,0.5-0.2,1.1-0.7,1.2c-0.5,0.1-1.1-0.2-1.2-0.7l-1.4-5.7
	C50.3,49.3,50.7,48.7,51.2,48.6z"/>
</svg>
