<?xml version="1.0" encoding="utf-8"?>
<!-- Generator: Adobe Illustrator 24.0.3, SVG Export Plug-In . SVG Version: 6.00 Build 0)  -->
<svg version="1.1" id="Слой_1" xmlns="http://www.w3.org/2000/svg" xmlns:xlink="http://www.w3.org/1999/xlink" x="0px" y="0px"
	 width="49.6px" height="60px" viewBox="0 0 49.6 60" style="enable-background:new 0 0 49.6 60;" xml:space="preserve">
<style type="text/css">
	.st0{fill-rule:evenodd;clip-rule:evenodd;fill:#CBCBCB;}
</style>
<path class="st0" d="M11.3,26.7c5.1,0,9.3-4.2,9.3-9.3c0-5.1-4.2-9.3-9.3-9.3C6.2,8.1,2,12.3,2,17.4C2,22.5,6.2,26.7,11.3,26.7z
	 M11.3,28.7c6.2,0,11.3-5.1,11.3-11.3S17.5,6.1,11.3,6.1C5.1,6.1,0,11.1,0,17.4S5.1,28.7,11.3,28.7z"/>
<path class="st0" d="M36.7,40.6c6,0,10.8-4.8,10.8-10.8S42.7,19,36.7,19c-6,0-10.8,4.8-10.8,10.8S30.8,40.6,36.7,40.6z M36.7,42.6
	c7.1,0,12.8-5.7,12.8-12.8c0-7.1-5.7-12.8-12.8-12.8c-7.1,0-12.8,5.7-12.8,12.8C23.9,36.9,29.7,42.6,36.7,42.6z"/>
<path class="st0" d="M28.5,8.9c1.9,0,3.4-1.5,3.4-3.4c0-1.9-1.5-3.4-3.4-3.4S25,3.5,25,5.4C25,7.3,26.6,8.9,28.5,8.9z M28.5,10.9
	c3,0,5.4-2.4,5.4-5.4c0-3-2.4-5.4-5.4-5.4c-3,0-5.4,2.4-5.4,5.4C23,8.4,25.5,10.9,28.5,10.9z"/>
<path class="st0" d="M16.7,39.3c1.9,0,3.4-1.5,3.4-3.4s-1.5-3.4-3.4-3.4c-1.9,0-3.4,1.5-3.4,3.4S14.8,39.3,16.7,39.3z M16.7,41.3
	c3,0,5.4-2.4,5.4-5.4c0-3-2.4-5.4-5.4-5.4c-3,0-5.4,2.4-5.4,5.4C11.3,38.9,13.7,41.3,16.7,41.3z"/>
<path class="st0" d="M23,58c3.9,0,7.1-3.2,7.1-7.1c0-3.9-3.2-7.1-7.1-7.1s-7.1,3.2-7.1,7.1C15.9,54.8,19.1,58,23,58z M23,60
	c5,0,9.1-4.1,9.1-9.1s-4.1-9.1-9.1-9.1s-9.1,4.1-9.1,9.1S18,60,23,60z"/>
</svg>
