<svg width="0" height="0" class="hidden">
  <symbol fill='none' stroke='currentColor' xmlns="http://www.w3.org/2000/svg" viewBox="0 0 25 25" id="round-arrow">
    <path d="M10.4 6.7l6.1 5.8-6.1 5.8"></path>
    <circle cx="12.5" cy="12.5" r="11.8"></circle>
  </symbol>
  <symbol fill='none' stroke="currentColor" xmlns="http://www.w3.org/2000/svg" viewBox="0 0 94.9 27" id="bottom-arrow">
    <path d="M.5.9l47 25 47-25" stroke-width="2"></path>
  </symbol>
   <symbol fill="currentColor" xmlns="http://www.w3.org/2000/svg" viewBox="0 0 17.2 19.1" id="play">
    <path d="M17.2 9.6L0 19.1V0l17.2 9.6z"></path>
  </symbol>
  <symbol fill="currentColor" xmlns="http://www.w3.org/2000/svg" viewBox="0 0 19 29" id="point">
    <path fill-rule="evenodd" clip-rule="evenodd" d="M8.4 27.034C4.974 22.485 0 15.888 0 10.5 0 5 4 .5 9.5.5c5 0 9.5 4 9.5 10.5 0 5.295-5.565 12.444-9.1 16.985l-.4.515c-.34-.46-.71-.95-1.1-1.466zM9.5 14a3.5 3.5 0 100-7 3.5 3.5 0 000 7z"></path>
  </symbol>
</svg>