<svg width="24" height="35" viewBox="0 0 24 35" fill="none" xmlns="http://www.w3.org/2000/svg">
<path fill-rule="evenodd" clip-rule="evenodd" d="M10.351 32.6934C6.12687 27.0889 0 18.96 0 12.3214C0 5.54464 4.92857 0 11.7054 0C17.8661 0 23.4107 4.92857 23.4107 12.9375C23.4107 19.4617 16.5544 28.27 12.1993 33.865C12.0307 34.0816 11.8659 34.2934 11.7054 34.5C11.2863 33.9343 10.8309 33.3301 10.351 32.6934ZM11.7054 16.6339C14.0871 16.6339 16.0179 14.7032 16.0179 12.3214C16.0179 9.9397 14.0871 8.00893 11.7054 8.00893C9.32363 8.00893 7.39286 9.9397 7.39286 12.3214C7.39286 14.7032 9.32363 16.6339 11.7054 16.6339Z" fill="black" fill-opacity="0.7"/>
</svg>
