<?xml version="1.0" encoding="utf-8"?>
<!-- Generator: Adobe Illustrator 24.0.3, SVG Export Plug-In . SVG Version: 6.00 Build 0)  -->
<svg version="1.1" id="Слой_1" xmlns="http://www.w3.org/2000/svg" xmlns:xlink="http://www.w3.org/1999/xlink" x="0px" y="0px"
	 width="107.8px" height="84.9px" viewBox="0 0 107.8 84.9" style="enable-background:new 0 0 107.8 84.9;" xml:space="preserve">
<style type="text/css">
	.st0{fill:#878787;}
	.st1{fill-rule:evenodd;clip-rule:evenodd;fill:#878787;}
</style>
<path class="st0" d="M8.6,58c0,0.8-0.1,1.5-0.5,2.2c-0.4,0.7-0.8,1.2-1.5,1.6c-0.6,0.4-1.4,0.6-2.2,0.6c-0.8,0-1.6-0.1-2.2-0.5
	S1,61.2,0.6,60.5C0.2,59.9,0,59.2,0,58.3c0-0.8,0.1-1.5,0.5-2.2c0.3-0.7,0.8-1.2,1.5-1.6c0.6-0.4,1.4-0.6,2.2-0.6
	c0.8,0,1.6,0.1,2.2,0.5c0.7,0.3,1.2,0.8,1.6,1.5C8.3,56.5,8.5,57.2,8.6,58z M7.6,58.1c0-0.6-0.2-1.1-0.5-1.6
	c-0.3-0.5-0.7-0.8-1.2-1.1c-0.5-0.2-1.1-0.4-1.7-0.3c-0.6,0-1.2,0.2-1.7,0.5c-0.5,0.3-0.9,0.7-1.1,1.2c-0.3,0.5-0.4,1-0.4,1.6
	c0,0.6,0.2,1.1,0.5,1.6c0.3,0.5,0.7,0.8,1.2,1.1c0.5,0.2,1.1,0.4,1.7,0.3c0.6,0,1.2-0.2,1.7-0.5c0.5-0.3,0.9-0.7,1.1-1.2
	C7.5,59.2,7.6,58.7,7.6,58.1z"/>
<path class="st0" d="M1.5,43l8.3,1.4l-0.2,1.1l-7.3-1.3l-0.9,5.2l7.3,1.3l-0.2,1.1l-8.3-1.4L1.5,43z"/>
<path class="st0" d="M12.9,33.4l2.9,1.2l-0.4,1l-2-0.8l-2.9,7.1l-7.8-3.2l0.4-1.1l6.9,2.8l1.9-4.8l-6.9-2.8l0.4-1.1l6.9,2.8
	L12.9,33.4z"/>
<path class="st0" d="M7.7,27.7l0.6-0.9l5.5,3.8l-2.3-8.4l0.6-0.8l6.9,4.8L18.4,27l-5.5-3.8l2.3,8.4l-0.6,0.8L7.7,27.7z"/>
<path class="st0" d="M23.4,21.7c-0.6,0.6-1.2,0.9-2,1.1C20.7,23,20,23,19.3,22.8c-0.7-0.2-1.4-0.6-1.9-1.2s-0.9-1.3-1.1-2
	c-0.2-0.7-0.2-1.4,0.1-2.2c0.2-0.7,0.6-1.3,1.2-1.9c0.6-0.6,1.2-0.9,2-1.1c0.7-0.2,1.4-0.2,2.1,0.1c0.7,0.2,1.4,0.6,1.9,1.2
	c0.6,0.6,0.9,1.3,1.1,2c0.2,0.7,0.2,1.4,0,2.2C24.4,20.5,24,21.1,23.4,21.7z M22.7,21c0.4-0.4,0.7-0.9,0.9-1.4
	c0.2-0.5,0.2-1.1,0-1.6c-0.2-0.5-0.4-1.1-0.9-1.5s-0.9-0.8-1.5-1c-0.5-0.2-1.1-0.2-1.6-0.1c-0.5,0.1-1,0.4-1.4,0.8
	c-0.4,0.4-0.7,0.9-0.9,1.4c-0.2,0.5-0.2,1.1,0,1.6c0.2,0.5,0.4,1.1,0.9,1.5c0.4,0.5,0.9,0.8,1.5,1c0.5,0.2,1.1,0.2,1.6,0.1
	C21.8,21.7,22.3,21.4,22.7,21z"/>
<path class="st0" d="M23.5,10.4l1-0.6l2,3.2l4.5-2.8l-2-3.2l1-0.6l4.4,7.2l-1,0.6l-1.9-3.2L27,13.8l1.9,3.2l-1,0.6L23.5,10.4z"/>
<path class="st0" d="M36.6,3.5c1-0.4,1.9-0.4,2.7-0.1c0.7,0.3,1.3,1,1.7,2l1.8,4.9l-1,0.4l-0.5-1.2c-0.1,0.5-0.3,1-0.7,1.4
	c-0.4,0.4-0.9,0.7-1.5,1c-0.9,0.3-1.7,0.4-2.3,0.2c-0.7-0.2-1.1-0.7-1.4-1.4c-0.2-0.7-0.2-1.3,0.1-1.9c0.3-0.6,1-1.1,2.1-1.5L40,6.2
	l-0.2-0.5c-0.3-0.7-0.6-1.1-1.1-1.3c-0.5-0.2-1.1-0.2-1.9,0.1c-0.5,0.2-0.9,0.4-1.3,0.8c-0.4,0.3-0.7,0.7-0.9,1.1l-0.8-0.6
	c0.3-0.5,0.7-0.9,1.1-1.3C35.4,4,36,3.7,36.6,3.5z M38.9,10.8c0.6-0.2,1.1-0.5,1.4-1c0.3-0.4,0.5-1,0.5-1.6L40.3,7l-2.5,0.9
	c-1.3,0.5-1.8,1.2-1.5,2.2c0.2,0.5,0.5,0.8,0.9,0.9C37.7,11.1,38.3,11.1,38.9,10.8z"/>
<path class="st0" d="M50.6,0.2L52,8.5l-1.1,0.2l-1.2-7.3l-4,0.6l0.2,2.1c0.2,1.7,0.2,3.1,0,4.1c-0.2,1-0.7,1.5-1.5,1.7
	c-0.2,0-0.5,0-0.8,0l-0.1-1c0.2,0,0.3,0,0.4,0c0.4-0.1,0.7-0.3,0.9-0.8c0.2-0.4,0.2-1,0.2-1.6c0-0.6-0.1-1.4-0.2-2.4l-0.3-3
	L50.6,0.2z"/>
<path class="st0" d="M58.5,3.1c1.1,0,1.8,0.3,2.4,0.8c0.5,0.5,0.8,1.1,0.8,2c0,0.9-0.3,1.6-1,2c-0.6,0.5-1.5,0.7-2.6,0.6l-3.4-0.1
	L54.9,0l1.1,0L56,3L58.5,3.1z M58,7.7c0.8,0,1.4-0.1,1.8-0.4c0.4-0.3,0.6-0.8,0.6-1.4c0-0.6-0.2-1.1-0.6-1.4c-0.4-0.3-1-0.5-1.8-0.5
	L56,3.8l-0.1,3.7L58,7.7z"/>
<path class="st0" d="M65,0.6l1.1,0.3l-0.8,3.6l5.2,1.2L71.3,2l1.1,0.3l-1.9,8.2l-1.1-0.3l0.8-3.6l-5.2-1.2l-0.8,3.6l-1.1-0.3L65,0.6
	z"/>
<path class="st0" d="M76.2,12.9c-0.7-0.3-1.3-0.8-1.8-1.4c-0.4-0.6-0.7-1.3-0.8-2c-0.1-0.7,0.1-1.5,0.4-2.2c0.3-0.7,0.8-1.3,1.4-1.8
	c0.6-0.4,1.3-0.7,2-0.7c0.7-0.1,1.5,0.1,2.2,0.4c0.7,0.3,1.3,0.8,1.8,1.4c0.4,0.6,0.7,1.3,0.8,2c0.1,0.7-0.1,1.5-0.4,2.2
	c-0.3,0.7-0.8,1.3-1.4,1.8c-0.6,0.4-1.3,0.7-2,0.8C77.7,13.4,76.9,13.2,76.2,12.9z M76.6,12c0.5,0.2,1.1,0.3,1.6,0.3
	c0.6-0.1,1.1-0.3,1.5-0.6c0.5-0.3,0.8-0.8,1.1-1.4c0.3-0.6,0.4-1.2,0.3-1.7c0-0.6-0.2-1.1-0.5-1.5c-0.3-0.4-0.7-0.8-1.3-1
	c-0.5-0.2-1.1-0.3-1.6-0.3c-0.5,0-1,0.2-1.5,0.6c-0.5,0.3-0.8,0.8-1.1,1.4c-0.3,0.6-0.4,1.2-0.3,1.7c0,0.6,0.2,1.1,0.5,1.5
	C75.6,11.4,76.1,11.7,76.6,12z"/>
<path class="st1" d="M5.4,69.6c0.8,5.3,3.2,10.1,5.7,14.9l-0.8,0.4c-2.5-4.8-5-9.7-5.8-15.2L5.4,69.6z"/>
<path class="st1" d="M107,35c-4.3-8.7-10.9-16.3-19.3-21.3l0.5-0.8c8.6,5.1,15.2,12.8,19.7,21.7L107,35z"/>
</svg>
